<svg xmlns="http://www.w3.org/2000/svg" viewBox="0 0 1200 720" role="img" aria-label="HelpTravel">
  <defs>
    <radialGradient id="sky2" cx="50%" cy="35%" r="65%">
      <stop offset="0%" stop-color="#DBEAFE"/>
      <stop offset="55%" stop-color="#93C5FD"/>
      <stop offset="100%" stop-color="#60A5FA"/>
    </radialGradient>
    <linearGradient id="cloud2" x1="0%" y1="0%" x2="0%" y2="100%">
      <stop offset="0%" stop-color="#FFFFFF"/>
      <stop offset="100%" stop-color="#E0F2FE"/>
    </linearGradient>
  </defs>

  <!-- Mark centered horizontally -->
  <g transform="translate(372 0)">
    <circle cx="228" cy="228" r="220" fill="#1E3A8A"/>
    <circle cx="228" cy="228" r="204" fill="none" stroke="#22C55E" stroke-width="9"/>
    <circle cx="228" cy="228" r="195" fill="url(#sky2)"/>

    <g fill="url(#cloud2)">
      <path d="M40 320 q40 -42 88 -22 q34 -26 78 -6 q40 -20 88 0 q34 -16 78 6 q40 -10 78 16 v54 a195 195 0 0 1 -410 0 z"/>
    </g>

    <g stroke="#BFDBFE" stroke-width="12" stroke-linecap="round" fill="none">
      <path d="M105 290 q56 -18 110 -50"/>
      <path d="M132 325 q66 -20 122 -50" opacity="0.7"/>
    </g>

    <g transform="translate(228 178) rotate(-25)">
      <g stroke="#FFFFFF" stroke-width="13" stroke-linejoin="round" fill="#1E3A8A">
        <path d="M -110 0 L 90 -20 L 128 -9 L 128 9 L 90 20 L -110 0 Z"/>
        <path d="M -10 -7 L -46 -82 L -18 -82 L 28 -7 Z"/>
        <path d="M -10 7 L -46 82 L -18 82 L 28 7 Z"/>
        <path d="M 82 -9 L 64 -42 L 82 -42 L 110 -11 Z"/>
      </g>
      <ellipse cx="105" cy="-2" rx="9" ry="4.5" fill="#FFFFFF" opacity="0.85"/>
    </g>
  </g>

  <!-- Wordmark -->
  <g font-family="Manrope, ui-sans-serif, system-ui, sans-serif" font-weight="800" font-size="148" letter-spacing="2">
    <text x="600" y="650" text-anchor="middle">
      <tspan fill="#1E40AF">HELP</tspan><tspan fill="#22C55E">TRAVEL</tspan>
    </text>
  </g>
</svg>
